<svg width="48" height="49" viewBox="0 0 48 49" fill="none" xmlns="http://www.w3.org/2000/svg">
<path fill-rule="evenodd" clip-rule="evenodd" d="M3 24.4999C3 24.8978 3.15804 25.2793 3.43934 25.5606C3.72065 25.8419 4.10218 25.9999 4.5 25.9999H39.879L30.438 35.4379C30.1563 35.7196 29.9981 36.1016 29.9981 36.4999C29.9981 36.8983 30.1563 37.2803 30.438 37.5619C30.7197 37.8436 31.1017 38.0018 31.5 38.0018C31.8983 38.0018 32.2803 37.8436 32.562 37.5619L44.562 25.5619C44.7017 25.4226 44.8125 25.2571 44.8881 25.0748C44.9638 24.8926 45.0027 24.6972 45.0027 24.4999C45.0027 24.3026 44.9638 24.1073 44.8881 23.925C44.8125 23.7428 44.7017 23.5773 44.562 23.4379L32.562 11.4379C32.4225 11.2985 32.257 11.1878 32.0748 11.1124C31.8925 11.0369 31.6972 10.998 31.5 10.998C31.1017 10.998 30.7197 11.1563 30.438 11.4379C30.1563 11.7196 29.9981 12.1016 29.9981 12.4999C29.9981 12.8983 30.1563 13.2803 30.438 13.5619L39.879 22.9999H4.5C4.10218 22.9999 3.72065 23.158 3.43934 23.4393C3.15804 23.7206 3 24.1021 3 24.4999Z" fill="black"/>
</svg>
