<svg width="50" height="42" viewBox="0 0 50 42" fill="none" xmlns="http://www.w3.org/2000/svg">
<path id="Vector" d="M49.436 23.4682L26.3605 0.559891C26.1819 0.382397 25.9698 0.241589 25.7364 0.145519C25.5029 0.0494485 25.2527 0 25 0C24.7473 0 24.4971 0.0494485 24.2636 0.145519C24.0302 0.241589 23.8181 0.382397 23.6395 0.559891L0.56398 23.4682C0.294744 23.7352 0.111356 24.0754 0.0370328 24.446C-0.0372903 24.8165 0.000793334 25.2005 0.146462 25.5496C0.292131 25.8986 0.538836 26.1968 0.855343 26.4066C1.17185 26.6163 1.54393 26.7281 1.92447 26.7278H11.5393V40.091C11.5393 40.5973 11.7419 41.0829 12.1025 41.4409C12.4631 41.7989 12.9522 42 13.4622 42H36.5378C37.0478 42 37.5369 41.7989 37.8975 41.4409C38.2581 41.0829 38.4607 40.5973 38.4607 40.091V26.7278H48.0755C48.4561 26.7281 48.8281 26.6163 49.1447 26.4066C49.4612 26.1968 49.7079 25.8986 49.8535 25.5496C49.9992 25.2005 50.0373 24.8165 49.963 24.446C49.8886 24.0754 49.7052 23.7352 49.436 23.4682Z" fill="#FFCC00"/>
</svg>
