<svg width="10" height="12" viewBox="0 0 10 12" fill="none" xmlns="http://www.w3.org/2000/svg">
<path d="M1.66667 4.8V3.6C1.66667 2.64522 2.01786 1.72955 2.64298 1.05442C3.2681 0.379285 4.11595 0 5 0C5.88406 0 6.7319 0.379285 7.35702 1.05442C7.98214 1.72955 8.33333 2.64522 8.33333 3.6H6.66667V4.8H8.88889C9.18357 4.8 9.46619 4.92643 9.67456 5.15147C9.88294 5.37652 10 5.68174 10 6V10.8C10 11.1183 9.88294 11.4235 9.67456 11.6485C9.46619 11.8736 9.18357 12 8.88889 12H1.11111C0.816426 12 0.533811 11.8736 0.325437 11.6485C0.117063 11.4235 0 11.1183 0 10.8V6C0 5.34 0.5 4.8 1.11111 4.8H1.66667ZM4.44444 8.838V10.2H5.55556V8.838C5.76738 8.70592 5.93293 8.50204 6.02653 8.25799C6.12014 8.01394 6.13656 7.74335 6.07325 7.48819C6.00995 7.23303 5.87045 7.00756 5.6764 6.84675C5.48235 6.68593 5.24459 6.59877 5 6.59877C4.75541 6.59877 4.51765 6.68593 4.3236 6.84675C4.12955 7.00756 3.99005 7.23303 3.92675 7.48819C3.86344 7.74335 3.87987 8.01394 3.97347 8.25799C4.06707 8.50204 4.23262 8.70592 4.44444 8.838ZM3.33333 3.6V4.8H6.66667V3.6C6.66667 3.12261 6.49107 2.66477 6.17851 2.32721C5.86595 1.98964 5.44203 1.8 5 1.8C4.55797 1.8 4.13405 1.98964 3.82149 2.32721C3.50893 2.66477 3.33333 3.12261 3.33333 3.6Z" fill="#FFCC00"/>
</svg>
