<svg width="24" height="24" viewBox="0 0 24 24" fill="none" xmlns="http://www.w3.org/2000/svg">
<g id="Vector">
<path fill-rule="evenodd" clip-rule="evenodd" d="M19.495 3.133C19.7165 2.99962 19.981 2.95718 20.2331 3.01461C20.4851 3.07203 20.7052 3.22485 20.847 3.441L21.837 4.951C21.9663 5.14835 22.0217 5.38508 21.9933 5.61932C21.965 5.85356 21.8547 6.07022 21.682 6.231L21.679 6.235L21.608 6.301L21.383 6.516C20.138 7.7236 18.9307 8.96953 17.763 10.252C15.566 12.668 12.957 15.83 11.201 18.898C10.711 19.754 9.514 19.938 8.804 19.199L2.319 12.461C2.22607 12.3644 2.1535 12.2501 2.10562 12.1249C2.05773 11.9997 2.03551 11.8662 2.04027 11.7322C2.04503 11.5982 2.07667 11.4666 2.13331 11.3451C2.18996 11.2236 2.27045 11.1148 2.37 11.025L4.33 9.257C4.50224 9.10171 4.7231 9.01111 4.95478 9.00072C5.18645 8.99032 5.41454 9.06076 5.6 9.2L8.909 11.681C14.077 6.584 17.009 4.628 19.495 3.133Z" fill="#F60707"/>
</g>
</svg>
