<svg width="48" height="30" viewBox="0 0 48 30" fill="none" xmlns="http://www.w3.org/2000/svg">
<path id="Vector" d="M12 24H10.5H12ZM32 24H33.5H32ZM20.1 22.5C19.2716 22.5 18.6 23.1716 18.6 24C18.6 24.8284 19.2716 25.5 20.1 25.5V22.5ZM30 3.2H31.5H30ZM2 0.5C1.17157 0.5 0.5 1.17157 0.5 2C0.5 2.82843 1.17157 3.5 2 3.5V0.5ZM11.3 25.5C12.1284 25.5 12.8 24.8284 12.8 24C12.8 23.1716 12.1284 22.5 11.3 22.5V25.5ZM7.5 13C7.5 12.1716 6.82843 11.5 6 11.5C5.17157 11.5 4.5 12.1716 4.5 13H7.5ZM4 6.5C3.17157 6.5 2.5 7.17157 2.5 8C2.5 8.82843 3.17157 9.5 4 9.5V6.5ZM12 9.5C12.8284 9.5 13.5 8.82843 13.5 8C13.5 7.17157 12.8284 6.5 12 6.5V9.5ZM30 6.5C29.1716 6.5 28.5 7.17157 28.5 8C28.5 8.82843 29.1716 9.5 30 9.5V6.5ZM41.22 8L41.2204 6.5H41.22V8ZM42.316 8.712L43.6867 8.10286L43.6864 8.102L42.316 8.712ZM45.896 16.768L44.5253 17.3771L44.526 17.3788L45.896 16.768ZM46 17.254H47.5L47.5 17.2507L46 17.254ZM46 22.8H47.5H46ZM44.8 24V25.5V24ZM41 22.5C40.1716 22.5 39.5 23.1716 39.5 24C39.5 24.8284 40.1716 25.5 41 25.5V22.5ZM16 29.5C17.4587 29.5 18.8576 28.9205 19.8891 27.8891L17.7678 25.7678C17.2989 26.2366 16.663 26.5 16 26.5V29.5ZM19.8891 27.8891C20.9205 26.8576 21.5 25.4587 21.5 24H18.5C18.5 24.663 18.2366 25.2989 17.7678 25.7678L19.8891 27.8891ZM21.5 24C21.5 22.5413 20.9205 21.1424 19.8891 20.1109L17.7678 22.2322C18.2366 22.7011 18.5 23.337 18.5 24H21.5ZM19.8891 20.1109C18.8576 19.0795 17.4587 18.5 16 18.5V21.5C16.663 21.5 17.2989 21.7634 17.7678 22.2322L19.8891 20.1109ZM16 18.5C14.5413 18.5 13.1424 19.0795 12.1109 20.1109L14.2322 22.2322C14.7011 21.7634 15.337 21.5 16 21.5V18.5ZM12.1109 20.1109C11.0795 21.1424 10.5 22.5413 10.5 24H13.5C13.5 23.337 13.7634 22.7011 14.2322 22.2322L12.1109 20.1109ZM10.5 24C10.5 25.4587 11.0795 26.8576 12.1109 27.8891L14.2322 25.7678C13.7634 25.2989 13.5 24.663 13.5 24H10.5ZM12.1109 27.8891C13.1424 28.9205 14.5413 29.5 16 29.5V26.5C15.337 26.5 14.7011 26.2366 14.2322 25.7678L12.1109 27.8891ZM36 29.5C37.4587 29.5 38.8576 28.9205 39.8891 27.8891L37.7678 25.7678C37.2989 26.2366 36.663 26.5 36 26.5V29.5ZM39.8891 27.8891C40.9205 26.8576 41.5 25.4587 41.5 24H38.5C38.5 24.663 38.2366 25.2989 37.7678 25.7678L39.8891 27.8891ZM41.5 24C41.5 22.5413 40.9205 21.1424 39.8891 20.1109L37.7678 22.2322C38.2366 22.7011 38.5 23.337 38.5 24H41.5ZM39.8891 20.1109C38.8576 19.0795 37.4587 18.5 36 18.5V21.5C36.663 21.5 37.2989 21.7634 37.7678 22.2322L39.8891 20.1109ZM36 18.5C34.5413 18.5 33.1424 19.0795 32.1109 20.1109L34.2322 22.2322C34.7011 21.7634 35.337 21.5 36 21.5V18.5ZM32.1109 20.1109C31.0795 21.1424 30.5 22.5413 30.5 24H33.5C33.5 23.337 33.7634 22.7011 34.2322 22.2322L32.1109 20.1109ZM30.5 24C30.5 25.4587 31.0795 26.8576 32.1109 27.8891L34.2322 25.7678C33.7634 25.2989 33.5 24.663 33.5 24H30.5ZM32.1109 27.8891C33.1424 28.9205 34.5413 29.5 36 29.5V26.5C35.337 26.5 34.7011 26.2366 34.2322 25.7678L32.1109 27.8891ZM20.1 25.5H30V22.5H20.1V25.5ZM31.5 24V3.2H28.5V24H31.5ZM31.5 3.2C31.5 2.48392 31.2155 1.79716 30.7092 1.29081L28.5879 3.41213C28.5316 3.35587 28.5 3.27956 28.5 3.2H31.5ZM30.7092 1.29081C30.2028 0.784462 29.5161 0.5 28.8 0.5V3.5C28.7204 3.5 28.6441 3.46839 28.5879 3.41213L30.7092 1.29081ZM28.8 0.5H2V3.5H28.8V0.5ZM11.3 22.5H7.2V25.5H11.3V22.5ZM7.2 22.5C7.23939 22.5 7.2784 22.5078 7.31481 22.5228L6.16675 25.2945C6.49434 25.4302 6.84544 25.5 7.2 25.5V22.5ZM7.31481 22.5228C7.35121 22.5379 7.38428 22.56 7.41213 22.5879L5.29081 24.7092C5.54153 24.9599 5.83917 25.1588 6.16675 25.2945L7.31481 22.5228ZM7.41213 22.5879C7.43999 22.6157 7.46209 22.6488 7.47716 22.6852L4.70553 23.8332C4.84121 24.1608 5.04009 24.4585 5.29081 24.7092L7.41213 22.5879ZM7.47716 22.6852C7.49224 22.7216 7.5 22.7606 7.5 22.8H4.5C4.5 23.1546 4.56984 23.5057 4.70553 23.8332L7.47716 22.6852ZM7.5 22.8V13H4.5V22.8H7.5ZM4 9.5H12V6.5H4V9.5ZM30 9.5H41.22V6.5H30V9.5ZM41.2196 9.5C41.1616 9.49999 41.1049 9.48316 41.0563 9.45158L42.6906 6.93583C42.2529 6.65151 41.7423 6.50013 41.2204 6.5L41.2196 9.5ZM41.0563 9.45158C41.0077 9.41999 40.9692 9.37499 40.9456 9.322L43.6864 8.102C43.4741 7.6252 43.1282 7.22014 42.6906 6.93583L41.0563 9.45158ZM40.9453 9.32114L44.5253 17.3771L47.2667 16.1589L43.6867 8.10286L40.9453 9.32114ZM44.526 17.3788C44.509 17.3406 44.5001 17.2992 44.5 17.2573L47.5 17.2507C47.4992 16.8738 47.4195 16.5013 47.266 16.1572L44.526 17.3788ZM44.5 17.254V22.8H47.5V17.254H44.5ZM44.5 22.8C44.5 22.7606 44.5078 22.7216 44.5228 22.6852L47.2945 23.8332C47.4302 23.5057 47.5 23.1546 47.5 22.8H44.5ZM44.5228 22.6852C44.5379 22.6488 44.56 22.6157 44.5879 22.5879L46.7092 24.7092C46.9599 24.4585 47.1588 24.1608 47.2945 23.8332L44.5228 22.6852ZM44.5879 22.5879C44.6157 22.56 44.6488 22.5379 44.6852 22.5228L45.8332 25.2945C46.1608 25.1588 46.4585 24.9599 46.7092 24.7092L44.5879 22.5879ZM44.6852 22.5228C44.7216 22.5078 44.7606 22.5 44.8 22.5V25.5C45.1546 25.5 45.5057 25.4302 45.8332 25.2945L44.6852 22.5228ZM44.8 22.5H41V25.5H44.8V22.5ZM30 25.5H32V22.5H30V25.5Z" fill="#333333"/>
</svg>
