<svg width="14" height="21" viewBox="0 0 14 21" fill="none" xmlns="http://www.w3.org/2000/svg">
<path fill-rule="evenodd" clip-rule="evenodd" d="M3 0.500275C2.20435 0.500275 1.44129 0.816345 0.87868 1.37895C0.316071 1.94156 0 2.70463 0 3.50027V19.5003C9.09694e-05 19.6707 0.0437191 19.8382 0.126744 19.987C0.209769 20.1358 0.329438 20.2609 0.474394 20.3505C0.619351 20.44 0.784787 20.4911 0.955006 20.4987C1.12522 20.5064 1.29458 20.4704 1.447 20.3943L7 17.6183L12.553 20.3943C12.7054 20.4704 12.8748 20.5064 13.045 20.4987C13.2152 20.4911 13.3806 20.44 13.5256 20.3505C13.6706 20.2609 13.7902 20.1358 13.8733 19.987C13.9563 19.8382 13.9999 19.6707 14 19.5003V3.50027C14 2.70463 13.6839 1.94156 13.1213 1.37895C12.5587 0.816345 11.7956 0.500275 11 0.500275H3Z" fill="#222222"/>
</svg>
