<svg width="60" height="60" viewBox="0 0 60 60" fill="none" xmlns="http://www.w3.org/2000/svg">
<g id="&#208;&#154;&#208;&#189;&#208;&#190;&#208;&#191;&#208;&#186;&#208;&#176; &#208;&#190;&#208;&#177;&#209;&#128;&#208;&#176;&#209;&#130;&#208;&#189;&#208;&#190;&#208;&#185; &#209;&#129;&#208;&#178;&#209;&#143;&#208;&#183;&#208;&#184;">
<path d="M60 30C60 46.5685 46.5685 60 30 60C13.4315 60 0 46.5685 0 30C0 13.4315 13.4315 0 30 0C46.5685 0 60 13.4315 60 30Z" fill="black"/>
<path d="M21.8002 21.2727C21.8002 20.8869 21.9529 20.5169 22.2249 20.2441C22.4968 19.9714 22.8656 19.8181 23.2502 19.8181H37.7502C38.1347 19.8181 38.5036 19.9714 38.7755 20.2441C39.0474 20.5169 39.2002 20.8869 39.2002 21.2727C39.2002 21.6584 39.0474 22.0284 38.7755 22.3012C38.5036 22.574 38.1347 22.7272 37.7502 22.7272H23.2502C22.8656 22.7272 22.4968 22.574 22.2249 22.3012C21.9529 22.0284 21.8002 21.6584 21.8002 21.2727ZM21.8002 27.0908C21.8002 26.7051 21.9529 26.3351 22.2249 26.0623C22.4968 25.7895 22.8656 25.6363 23.2502 25.6363H37.7502C38.1347 25.6363 38.5036 25.7895 38.7755 26.0623C39.0474 26.3351 39.2002 26.7051 39.2002 27.0908C39.2002 27.4766 39.0474 27.8466 38.7755 28.1194C38.5036 28.3921 38.1347 28.5454 37.7502 28.5454H23.2502C22.8656 28.5454 22.4968 28.3921 22.2249 28.1194C21.9529 27.8466 21.8002 27.4766 21.8002 27.0908ZM23.2502 31.4545C22.8656 31.4545 22.4968 31.6077 22.2249 31.8805C21.9529 32.1533 21.8002 32.5233 21.8002 32.909C21.8002 33.2948 21.9529 33.6648 22.2249 33.9375C22.4968 34.2103 22.8656 34.3636 23.2502 34.3636H37.7502C38.1347 34.3636 38.5036 34.2103 38.7755 33.9375C39.0474 33.6648 39.2002 33.2948 39.2002 32.909C39.2002 32.5233 39.0474 32.1533 38.7755 31.8805C38.5036 31.6077 38.1347 31.4545 37.7502 31.4545H23.2502ZM21.8002 38.7272C21.8002 38.3414 21.9529 37.9715 22.2249 37.6987C22.4968 37.4259 22.8656 37.2727 23.2502 37.2727H29.0502C29.4347 37.2727 29.8036 37.4259 30.0755 37.6987C30.3474 37.9715 30.5002 38.3414 30.5002 38.7272C30.5002 39.113 30.3474 39.4829 30.0755 39.7557C29.8036 40.0285 29.4347 40.1818 29.0502 40.1818H23.2502C22.8656 40.1818 22.4968 40.0285 22.2249 39.7557C21.9529 39.4829 21.8002 39.113 21.8002 38.7272Z" fill="#FFCC00"/>
<path fill-rule="evenodd" clip-rule="evenodd" d="M16 18.3636C16 17.2063 16.4583 16.0964 17.2741 15.2781C18.0899 14.4597 19.1963 14 20.35 14H40.65C41.8037 14 42.9101 14.4597 43.7259 15.2781C44.5417 16.0964 45 17.2063 45 18.3636V41.6364C45 42.7937 44.5417 43.9036 43.7259 44.7219C42.9101 45.5403 41.8037 46 40.65 46H20.35C19.1963 46 18.0899 45.5403 17.2741 44.7219C16.4583 43.9036 16 42.7937 16 41.6364V18.3636ZM20.35 16.9091H40.65C41.0346 16.9091 41.4034 17.0623 41.6753 17.3351C41.9472 17.6079 42.1 17.9779 42.1 18.3636V41.6364C42.1 42.0221 41.9472 42.3921 41.6753 42.6649C41.4034 42.9377 41.0346 43.0909 40.65 43.0909H20.35C19.9654 43.0909 19.5966 42.9377 19.3247 42.6649C19.0528 42.3921 18.9 42.0221 18.9 41.6364V18.3636C18.9 17.9779 19.0528 17.6079 19.3247 17.3351C19.5966 17.0623 19.9654 16.9091 20.35 16.9091Z" fill="#FFCC00"/>
</g>
</svg>
