<svg width="42" height="42" viewBox="0 0 42 42" fill="none" xmlns="http://www.w3.org/2000/svg">
<path d="M17.16 0C8.13747 0 0.839966 7.2975 0.839966 16.32C0.839966 25.3425 8.13747 32.64 17.16 32.64C20.3812 32.64 23.3625 31.695 25.89 30.09L37.68 41.88L41.76 37.8L30.12 26.19C32.2125 23.445 33.48 20.0438 33.48 16.32C33.48 7.2975 26.1825 0 17.16 0ZM17.16 3.84C24.0712 3.84 29.64 9.40875 29.64 16.32C29.64 23.2313 24.0712 28.8 17.16 28.8C10.2487 28.8 4.67997 23.2313 4.67997 16.32C4.67997 9.40875 10.2487 3.84 17.16 3.84Z" fill="#333333"/>
</svg>
