<svg width="20" height="21" viewBox="0 0 20 21" fill="none" xmlns="http://www.w3.org/2000/svg">
<path d="M10 0.500001C7.34783 0.500001 4.8043 1.55357 2.92893 3.42893C1.05357 5.3043 0 7.84784 0 10.5C0 13.1522 1.05357 15.6957 2.92893 17.5711C4.8043 19.4464 7.34783 20.5 10 20.5C12.6522 20.5 15.1957 19.4464 17.0711 17.5711C18.9464 15.6957 20 13.1522 20 10.5C20 7.84784 18.9464 5.3043 17.0711 3.42893C15.1957 1.55357 12.6522 0.500001 10 0.500001Z" fill="#29B6F6"/>
<path d="M14.975 6L13.102 15.563C13.102 15.563 13.0215 16 12.4795 16C12.1915 16 12.043 15.863 12.043 15.863L7.986 12.4965L6.001 11.496L3.4535 10.8185C3.4535 10.8185 3 10.6875 3 10.3125C3 10 3.4665 9.851 3.4665 9.851L14.1245 5.617C14.1245 5.617 14.45 5.4995 14.6875 5.5C14.8335 5.5 15 5.5625 15 5.75C15 5.875 14.975 6 14.975 6Z" fill="white"/>
<path d="M9.5 13.7525L7.787 15.4395C7.787 15.4395 7.7125 15.497 7.613 15.4995C7.5785 15.5005 7.5415 15.495 7.5035 15.478L7.9855 12.4955L9.5 13.7525Z" fill="#B0BEC5"/>
<path d="M12.9485 7.598C12.864 7.488 12.708 7.468 12.598 7.5515L6 11.5C6 11.5 7.053 14.446 7.2135 14.956C7.3745 15.4665 7.5035 15.478 7.5035 15.478L7.986 12.4965L12.9015 7.948C13.0115 7.8645 13.032 7.708 12.9485 7.598Z" fill="#CFD8DC"/>
</svg>
