<svg width="18" height="19" viewBox="0 0 18 19" fill="none" xmlns="http://www.w3.org/2000/svg">
<path d="M18 16C18 17.381 16.881 18.5 15.5 18.5H2.5C1.1195 18.5 0 17.381 0 16V3C0 1.619 1.1195 0.5 2.5 0.5H15.5C16.881 0.5 18 1.619 18 3V16Z" fill="#1976D2"/>
<path d="M14.9685 6.5205C14.9915 6.445 15.0025 6.375 14.9995 6.3125C14.992 6.1315 14.8675 6 14.5745 6H13.2655C12.935 6 12.7825 6.2 12.6935 6.4005C12.6935 6.4005 11.8775 8.08 10.937 9.1875C10.632 9.508 10.477 9.5 10.312 9.5C10.2235 9.5 10 9.393 10 9.0995V6.507C10 6.16 9.9135 6 9.634 6H7.3095C7.106 6 7 6.16 7 6.3205C7 6.654 7.449 6.734 7.5 7.6685V9.48C7.5 9.92 7.4235 10 7.2585 10C6.8135 10 5.9375 8.5 5.351 6.534C5.224 6.147 5.097 6 4.7665 6H3.445C3.0635 6 3 6.187 3 6.387C3 6.7475 3.3 8.6965 4.9375 10.9375C6.125 12.5625 7.6895 13.5 9.0745 13.5C9.9135 13.5 9.9995 13.2865 9.9995 12.953V11.467C10 11.0665 10.0915 11 10.3585 11C10.549 11 10.9375 11.125 11.6875 12C12.5525 13.009 12.7095 13.5 13.2055 13.5H14.5145C14.8185 13.5 14.993 13.3725 15 13.125C15.0015 13.062 14.9925 12.9915 14.972 12.913C14.875 12.625 14.43 11.921 13.875 11.25C13.5675 10.8785 13.264 10.5105 13.1245 10.3105C13.031 10.18 12.9955 10.088 13 10C13.0045 9.9075 13.0525 9.8195 13.1245 9.6965C13.1115 9.6965 14.8035 7.321 14.9685 6.5205Z" fill="white"/>
</svg>
