<svg width="20" height="21" viewBox="0 0 20 21" fill="none" xmlns="http://www.w3.org/2000/svg">
<path d="M0.498543 20.0033L1.84107 15.1229C1.01283 13.6947 0.577281 12.074 0.577779 10.4142C0.580271 5.22112 4.82412 0.996228 10.0397 0.996228C12.5708 0.997221 14.9459 1.97827 16.7324 3.75824C18.5184 5.53871 19.5022 7.90472 19.5012 10.4216C19.4992 15.6146 15.2543 19.84 10.0397 19.84H10.0357C8.45252 19.8395 6.89621 19.444 5.51431 18.6932L0.498543 20.0033Z" fill="white"/>
<path d="M0.498543 20.2514C0.432763 20.2514 0.368975 20.2256 0.321633 20.1779C0.259341 20.1149 0.234923 20.0231 0.258344 19.9383L1.57346 15.1566C0.758177 13.7146 0.328112 12.077 0.329108 10.4146C0.331102 5.08416 4.68707 0.748114 10.0397 0.748114C12.6361 0.749107 15.0754 1.75595 16.9088 3.58307C18.7422 5.41068 19.7513 7.83922 19.7503 10.4216C19.7483 15.7516 15.3919 20.0881 10.0397 20.0881C8.45052 20.0876 6.87827 19.6971 5.48292 18.9582L0.561832 20.243C0.540902 20.2489 0.519972 20.2514 0.498543 20.2514Z" fill="white"/>
<path d="M10.0397 0.996228C12.5708 0.997221 14.9459 1.97827 16.7324 3.75824C18.5184 5.53871 19.5022 7.90472 19.5012 10.4216C19.4992 15.6146 15.2543 19.84 10.0397 19.84H10.0357C8.45252 19.8395 6.89621 19.444 5.51431 18.6932L0.498543 20.0033L1.84107 15.1229C1.01283 13.6947 0.577281 12.074 0.577779 10.4142C0.580271 5.22112 4.82412 0.996228 10.0397 0.996228ZM10.0397 0.5C4.55003 0.5 0.0819324 4.9472 0.0794407 10.4142C0.0789424 12.085 0.50253 13.7314 1.30585 15.1889L0.0176469 19.8728C-0.0291969 20.044 0.0186435 20.2266 0.144225 20.3526C0.238909 20.4479 0.366982 20.5 0.498543 20.5C0.540902 20.5 0.58326 20.4945 0.625121 20.4836L5.45252 19.2232C6.86182 19.9517 8.44155 20.3362 10.0357 20.3367C15.5294 20.3367 19.9975 15.889 20 10.4221C20.001 7.77273 18.9659 5.28166 17.0857 3.4079C15.2045 1.53364 12.7023 0.500992 10.0397 0.5Z" fill="#CFD8DC"/>
<path d="M15.6022 4.88269C14.1171 3.40294 12.1432 2.58763 10.0422 2.58714C5.70468 2.58714 2.17694 6.09845 2.17495 10.4146C2.17445 11.8939 2.59007 13.334 3.37744 14.581L3.56482 14.8772L2.76997 17.7658L5.74654 16.9887L6.03408 17.1584C7.24106 17.872 8.62544 18.2491 10.0367 18.2496H10.0397C14.3743 18.2496 17.902 14.7378 17.9035 10.4211C17.904 8.3295 17.0872 6.36245 15.6022 4.88269Z" fill="#40C351"/>
<path fill-rule="evenodd" clip-rule="evenodd" d="M7.67461 6.47707C7.4977 6.08505 7.31132 6.07711 7.14239 6.07017C7.00435 6.06421 6.84687 6.06471 6.6894 6.06471C6.53192 6.06471 6.27577 6.12376 6.059 6.35947C5.84222 6.59518 5.23126 7.16435 5.23126 8.32255C5.23126 9.48075 6.07843 10.6002 6.19654 10.757C6.31465 10.9139 7.83208 13.3667 10.2351 14.3105C12.2319 15.0946 12.6386 14.9388 13.0721 14.8996C13.5057 14.8604 14.4709 14.3304 14.6678 13.7806C14.8646 13.2307 14.8646 12.7598 14.8058 12.6616C14.7465 12.5633 14.589 12.5048 14.3528 12.3867C14.1166 12.2686 12.954 11.6994 12.7372 11.621C12.5204 11.5426 12.363 11.5034 12.205 11.7391C12.0475 11.9743 11.5945 12.5048 11.4565 12.6616C11.3185 12.8189 11.1804 12.8387 10.9442 12.7206C10.708 12.6025 9.94653 12.3544 9.04305 11.5525C8.34039 10.9287 7.86597 10.1581 7.72793 9.92239C7.58989 9.68718 7.71298 9.55965 7.83159 9.44204C7.93773 9.33634 8.0678 9.16713 8.1864 9.02967C8.30451 8.89222 8.34388 8.79397 8.42262 8.63716C8.50135 8.47985 8.46198 8.3424 8.40268 8.22479C8.34438 8.10669 7.88491 6.94254 7.67461 6.47707Z" fill="white"/>
</svg>
